# xmcd CD database file
#
# Track frame offsets:
#	150
#	16570
#	31660
#	48205
#	69057
#	80367
#	100177
#	112840
#	134077
#	156235
#	179760
#	198572
#	217505
#	231502
#	251917
#	271345
#
# Disc length: 3885 seconds
#
# Revision: 1
# Processed by: cddbd v1.5.2PL0 Copyright (c) Steve Scherf et al.
# Submitted via: CDex 1.51
#
DISCID=cf0f2b10
DTITLE=Magic Sam - Rockin' Wild In Chicago
DYEAR=1900
DGENRE=Blues
TTITLE0=Tremble
TTITLE1=Call Me When You Need Me
TTITLE2=How Long Can This Go On
TTITLE3=Every Night, Every Day
TTITLE4=Why Are You So Mean To Me
TTITLE5=Dirty Work Going On
TTITLE6=Further On Up The Road
TTITLE7=It's All Your Fault Baby
TTITLE8=Looking Good
TTITLE9=Keep On Loving Me Baby
TTITLE10=I Found Me A New Love
TTITLE11=Got My Mojo Working
TTITLE12=I Don't Want No Woman
TTITLE13=Just A Little Bit
TTITLE14=Tore Down
TTITLE15=Rockin' Wild
EXTD=
EXTT0=
EXTT1=
EXTT2=
EXTT3=
EXTT4=
EXTT5=
EXTT6=
EXTT7=
EXTT8=
EXTT9=
EXTT10=
EXTT11=
EXTT12=
EXTT13=
EXTT14=
EXTT15=
PLAYORDER=
